<mxfile host="app.diagrams.net" modified="2023-03-20T01:16:46.737Z" agent="5.0 (Windows NT 10.0; Win64; x64) AppleWebKit/537.36 (KHTML, like Gecko) Chrome/93.0.4577.63 Safari/537.36 Edg/93.0.961.47" etag="iQXN3ekaekTX_cxEffDq" version="21.0.8" type="github">
  <diagram name="第 1 页" id="_Mh3rlw3rDL7OMKS7EPb">
    <mxGraphModel dx="1981" dy="1748" grid="1" gridSize="10" guides="1" tooltips="1" connect="1" arrows="1" fold="1" page="1" pageScale="1" pageWidth="827" pageHeight="1169" math="0" shadow="0">
      <root>
        <mxCell id="0" />
        <mxCell id="1" parent="0" />
        <mxCell id="zeZFywTTIwXV4-_s_FP3-36" style="edgeStyle=orthogonalEdgeStyle;rounded=0;orthogonalLoop=1;jettySize=auto;html=1;entryX=0.5;entryY=0;entryDx=0;entryDy=0;" edge="1" parent="1" source="zeZFywTTIwXV4-_s_FP3-1" target="zeZFywTTIwXV4-_s_FP3-35">
          <mxGeometry relative="1" as="geometry" />
        </mxCell>
        <mxCell id="zeZFywTTIwXV4-_s_FP3-1" value="开始" style="rounded=1;whiteSpace=wrap;html=1;" vertex="1" parent="1">
          <mxGeometry x="-32.5" y="-170" width="80" height="20" as="geometry" />
        </mxCell>
        <mxCell id="zeZFywTTIwXV4-_s_FP3-10" style="edgeStyle=orthogonalEdgeStyle;rounded=0;orthogonalLoop=1;jettySize=auto;html=1;entryX=0.5;entryY=0;entryDx=0;entryDy=0;" edge="1" parent="1" source="zeZFywTTIwXV4-_s_FP3-3" target="zeZFywTTIwXV4-_s_FP3-9">
          <mxGeometry relative="1" as="geometry" />
        </mxCell>
        <mxCell id="zeZFywTTIwXV4-_s_FP3-3" value="&lt;font style=&quot;font-size: 6px;&quot;&gt;将body1、body2、ResShape进行面映射分别得到IndexOfFaceMap1、IndexOfFaceMap2、IndexOfFaceMap3简称为map1、map2、map3&lt;/font&gt;" style="rounded=0;whiteSpace=wrap;html=1;" vertex="1" parent="1">
          <mxGeometry x="-120" y="30" width="255" height="70" as="geometry" />
        </mxCell>
        <mxCell id="zeZFywTTIwXV4-_s_FP3-13" value="否" style="edgeStyle=orthogonalEdgeStyle;rounded=0;orthogonalLoop=1;jettySize=auto;html=1;entryX=0.5;entryY=0;entryDx=0;entryDy=0;" edge="1" parent="1" source="zeZFywTTIwXV4-_s_FP3-5" target="zeZFywTTIwXV4-_s_FP3-46">
          <mxGeometry relative="1" as="geometry">
            <mxPoint x="7.5" y="555" as="targetPoint" />
          </mxGeometry>
        </mxCell>
        <mxCell id="zeZFywTTIwXV4-_s_FP3-14" value="是" style="edgeStyle=orthogonalEdgeStyle;rounded=0;orthogonalLoop=1;jettySize=auto;html=1;entryX=0;entryY=0.5;entryDx=0;entryDy=0;" edge="1" parent="1" source="zeZFywTTIwXV4-_s_FP3-5" target="zeZFywTTIwXV4-_s_FP3-16">
          <mxGeometry relative="1" as="geometry">
            <mxPoint x="100" y="455" as="targetPoint" />
          </mxGeometry>
        </mxCell>
        <mxCell id="zeZFywTTIwXV4-_s_FP3-5" value="i是否小于等于&lt;br&gt;map1的大小" style="rhombus;whiteSpace=wrap;html=1;" vertex="1" parent="1">
          <mxGeometry x="-48.5" y="415" width="112" height="70" as="geometry" />
        </mxCell>
        <mxCell id="zeZFywTTIwXV4-_s_FP3-7" style="edgeStyle=orthogonalEdgeStyle;rounded=0;orthogonalLoop=1;jettySize=auto;html=1;exitX=0.5;exitY=1;exitDx=0;exitDy=0;" edge="1" parent="1" source="zeZFywTTIwXV4-_s_FP3-1" target="zeZFywTTIwXV4-_s_FP3-1">
          <mxGeometry relative="1" as="geometry" />
        </mxCell>
        <mxCell id="zeZFywTTIwXV4-_s_FP3-12" style="edgeStyle=orthogonalEdgeStyle;rounded=0;orthogonalLoop=1;jettySize=auto;html=1;entryX=0.5;entryY=0;entryDx=0;entryDy=0;" edge="1" parent="1" source="zeZFywTTIwXV4-_s_FP3-9" target="zeZFywTTIwXV4-_s_FP3-5">
          <mxGeometry relative="1" as="geometry" />
        </mxCell>
        <mxCell id="zeZFywTTIwXV4-_s_FP3-9" value="初始化i、j都等于0" style="rounded=0;whiteSpace=wrap;html=1;" vertex="1" parent="1">
          <mxGeometry x="-52.5" y="160" width="120" height="50" as="geometry" />
        </mxCell>
        <mxCell id="zeZFywTTIwXV4-_s_FP3-17" style="edgeStyle=orthogonalEdgeStyle;rounded=0;orthogonalLoop=1;jettySize=auto;html=1;entryX=0;entryY=0.5;entryDx=0;entryDy=0;" edge="1" parent="1" source="zeZFywTTIwXV4-_s_FP3-16" target="zeZFywTTIwXV4-_s_FP3-18">
          <mxGeometry relative="1" as="geometry">
            <mxPoint x="260" y="455" as="targetPoint" />
          </mxGeometry>
        </mxCell>
        <mxCell id="zeZFywTTIwXV4-_s_FP3-16" value="根据Modified函数获取当前面map1[i]经布尔操作后的修改面集合" style="rounded=0;whiteSpace=wrap;html=1;" vertex="1" parent="1">
          <mxGeometry x="100" y="425" width="120" height="60" as="geometry" />
        </mxCell>
        <mxCell id="zeZFywTTIwXV4-_s_FP3-19" value="否" style="edgeStyle=orthogonalEdgeStyle;rounded=0;orthogonalLoop=1;jettySize=auto;html=1;entryX=0;entryY=0.5;entryDx=0;entryDy=0;" edge="1" parent="1" source="zeZFywTTIwXV4-_s_FP3-18" target="zeZFywTTIwXV4-_s_FP3-20">
          <mxGeometry relative="1" as="geometry">
            <mxPoint x="400" y="455" as="targetPoint" />
          </mxGeometry>
        </mxCell>
        <mxCell id="zeZFywTTIwXV4-_s_FP3-29" value="是" style="edgeStyle=orthogonalEdgeStyle;rounded=0;orthogonalLoop=1;jettySize=auto;html=1;entryX=0.5;entryY=1;entryDx=0;entryDy=0;" edge="1" parent="1" source="zeZFywTTIwXV4-_s_FP3-18" target="zeZFywTTIwXV4-_s_FP3-28">
          <mxGeometry relative="1" as="geometry" />
        </mxCell>
        <mxCell id="zeZFywTTIwXV4-_s_FP3-18" value="集合是否为空" style="rhombus;whiteSpace=wrap;html=1;" vertex="1" parent="1">
          <mxGeometry x="270" y="415" width="80" height="80" as="geometry" />
        </mxCell>
        <mxCell id="zeZFywTTIwXV4-_s_FP3-47" style="edgeStyle=orthogonalEdgeStyle;rounded=0;orthogonalLoop=1;jettySize=auto;html=1;entryX=0.5;entryY=1;entryDx=0;entryDy=0;" edge="1" parent="1" source="zeZFywTTIwXV4-_s_FP3-20" target="zeZFywTTIwXV4-_s_FP3-41">
          <mxGeometry relative="1" as="geometry" />
        </mxCell>
        <mxCell id="zeZFywTTIwXV4-_s_FP3-20" value="遍历集合中的元素" style="rounded=0;whiteSpace=wrap;html=1;" vertex="1" parent="1">
          <mxGeometry x="400" y="427.5" width="120" height="55" as="geometry" />
        </mxCell>
        <mxCell id="zeZFywTTIwXV4-_s_FP3-24" style="edgeStyle=orthogonalEdgeStyle;rounded=0;orthogonalLoop=1;jettySize=auto;html=1;entryX=0.5;entryY=1;entryDx=0;entryDy=0;" edge="1" parent="1" source="zeZFywTTIwXV4-_s_FP3-22" target="zeZFywTTIwXV4-_s_FP3-25">
          <mxGeometry relative="1" as="geometry">
            <mxPoint x="310" y="290" as="targetPoint" />
          </mxGeometry>
        </mxCell>
        <mxCell id="zeZFywTTIwXV4-_s_FP3-22" value="以特征1中map1[i]的元素名为key,map3[j]在map[3]中索引名为value存入结果map;&lt;br&gt;将j存入IndexSet" style="rounded=0;whiteSpace=wrap;html=1;" vertex="1" parent="1">
          <mxGeometry x="200" y="90" width="220" height="60" as="geometry" />
        </mxCell>
        <mxCell id="zeZFywTTIwXV4-_s_FP3-25" value="i++" style="rounded=0;whiteSpace=wrap;html=1;" vertex="1" parent="1">
          <mxGeometry x="250" y="-10" width="120" height="60" as="geometry" />
        </mxCell>
        <mxCell id="zeZFywTTIwXV4-_s_FP3-30" value="是" style="edgeStyle=orthogonalEdgeStyle;rounded=0;orthogonalLoop=1;jettySize=auto;html=1;exitX=0.5;exitY=0;exitDx=0;exitDy=0;entryX=0.5;entryY=1;entryDx=0;entryDy=0;" edge="1" parent="1" source="zeZFywTTIwXV4-_s_FP3-28" target="zeZFywTTIwXV4-_s_FP3-32">
          <mxGeometry relative="1" as="geometry">
            <mxPoint x="310" y="250" as="targetPoint" />
          </mxGeometry>
        </mxCell>
        <mxCell id="zeZFywTTIwXV4-_s_FP3-28" value="j是否小于等于&lt;br&gt;map3的大小" style="rhombus;whiteSpace=wrap;html=1;" vertex="1" parent="1">
          <mxGeometry x="260" y="300" width="100" height="80" as="geometry" />
        </mxCell>
        <mxCell id="zeZFywTTIwXV4-_s_FP3-34" value="是" style="edgeStyle=orthogonalEdgeStyle;rounded=0;orthogonalLoop=1;jettySize=auto;html=1;" edge="1" parent="1" source="zeZFywTTIwXV4-_s_FP3-32" target="zeZFywTTIwXV4-_s_FP3-22">
          <mxGeometry relative="1" as="geometry" />
        </mxCell>
        <mxCell id="zeZFywTTIwXV4-_s_FP3-32" value="map3[j]与map1[i]&lt;br&gt;是否几何相等" style="rhombus;whiteSpace=wrap;html=1;" vertex="1" parent="1">
          <mxGeometry x="250" y="190" width="120" height="80" as="geometry" />
        </mxCell>
        <mxCell id="zeZFywTTIwXV4-_s_FP3-37" style="edgeStyle=orthogonalEdgeStyle;rounded=0;orthogonalLoop=1;jettySize=auto;html=1;entryX=0.5;entryY=0;entryDx=0;entryDy=0;" edge="1" parent="1" source="zeZFywTTIwXV4-_s_FP3-35" target="zeZFywTTIwXV4-_s_FP3-3">
          <mxGeometry relative="1" as="geometry" />
        </mxCell>
        <mxCell id="zeZFywTTIwXV4-_s_FP3-35" value="特征1的实体为body1、特征2的实体为body2，布尔操作后结果体为ResShape；IndexSet存储ResShape中已经命名的面的索引;ModifiedName和ModifiedShape分别存储特征1或2中的名字与ResShape中相应面元素" style="rounded=0;whiteSpace=wrap;html=1;" vertex="1" parent="1">
          <mxGeometry x="-136.5" y="-60" width="288" height="60" as="geometry" />
        </mxCell>
        <mxCell id="zeZFywTTIwXV4-_s_FP3-39" value="" style="endArrow=none;html=1;rounded=0;edgeStyle=orthogonalEdgeStyle;entryX=0;entryY=0.5;entryDx=0;entryDy=0;exitX=0.5;exitY=0;exitDx=0;exitDy=0;" edge="1" parent="1" source="zeZFywTTIwXV4-_s_FP3-5" target="zeZFywTTIwXV4-_s_FP3-25">
          <mxGeometry width="50" height="50" relative="1" as="geometry">
            <mxPoint x="100" y="320" as="sourcePoint" />
            <mxPoint x="150" y="270" as="targetPoint" />
            <Array as="points">
              <mxPoint x="180" y="415" />
              <mxPoint x="180" y="20" />
            </Array>
          </mxGeometry>
        </mxCell>
        <mxCell id="zeZFywTTIwXV4-_s_FP3-42" style="edgeStyle=orthogonalEdgeStyle;rounded=0;orthogonalLoop=1;jettySize=auto;html=1;entryX=1;entryY=0.5;entryDx=0;entryDy=0;" edge="1" parent="1" source="zeZFywTTIwXV4-_s_FP3-41" target="zeZFywTTIwXV4-_s_FP3-25">
          <mxGeometry relative="1" as="geometry">
            <Array as="points">
              <mxPoint x="460" y="20" />
            </Array>
          </mxGeometry>
        </mxCell>
        <mxCell id="zeZFywTTIwXV4-_s_FP3-41" value="将特征1中map[i]的名字存入ModifiedName；将当前遍历的集合的面存入ModifiedShape" style="rounded=0;whiteSpace=wrap;html=1;" vertex="1" parent="1">
          <mxGeometry x="375" y="312.5" width="170" height="55" as="geometry" />
        </mxCell>
        <mxCell id="zeZFywTTIwXV4-_s_FP3-48" style="edgeStyle=orthogonalEdgeStyle;rounded=0;orthogonalLoop=1;jettySize=auto;html=1;entryX=0.5;entryY=0;entryDx=0;entryDy=0;" edge="1" parent="1" source="zeZFywTTIwXV4-_s_FP3-46" target="zeZFywTTIwXV4-_s_FP3-49">
          <mxGeometry relative="1" as="geometry">
            <mxPoint x="7.5" y="610" as="targetPoint" />
          </mxGeometry>
        </mxCell>
        <mxCell id="zeZFywTTIwXV4-_s_FP3-46" value="对map2的遍历操作与map1大致相同此处省略" style="rounded=0;whiteSpace=wrap;html=1;" vertex="1" parent="1">
          <mxGeometry x="-52.5" y="510" width="120" height="60" as="geometry" />
        </mxCell>
        <mxCell id="zeZFywTTIwXV4-_s_FP3-50" style="edgeStyle=orthogonalEdgeStyle;rounded=0;orthogonalLoop=1;jettySize=auto;html=1;entryX=0.5;entryY=0;entryDx=0;entryDy=0;" edge="1" parent="1" source="zeZFywTTIwXV4-_s_FP3-49" target="zeZFywTTIwXV4-_s_FP3-51">
          <mxGeometry relative="1" as="geometry">
            <mxPoint x="7.5" y="670" as="targetPoint" />
          </mxGeometry>
        </mxCell>
        <mxCell id="zeZFywTTIwXV4-_s_FP3-49" value="重置i=0" style="rounded=0;whiteSpace=wrap;html=1;" vertex="1" parent="1">
          <mxGeometry x="-52.5" y="600" width="120" height="30" as="geometry" />
        </mxCell>
        <mxCell id="zeZFywTTIwXV4-_s_FP3-52" value="是" style="edgeStyle=orthogonalEdgeStyle;rounded=0;orthogonalLoop=1;jettySize=auto;html=1;entryX=0;entryY=0.5;entryDx=0;entryDy=0;" edge="1" parent="1" source="zeZFywTTIwXV4-_s_FP3-51" target="zeZFywTTIwXV4-_s_FP3-54">
          <mxGeometry relative="1" as="geometry">
            <mxPoint x="80" y="700" as="targetPoint" />
          </mxGeometry>
        </mxCell>
        <mxCell id="zeZFywTTIwXV4-_s_FP3-61" value="否" style="edgeStyle=orthogonalEdgeStyle;rounded=0;orthogonalLoop=1;jettySize=auto;html=1;entryX=0.5;entryY=0;entryDx=0;entryDy=0;" edge="1" parent="1" source="zeZFywTTIwXV4-_s_FP3-51" target="zeZFywTTIwXV4-_s_FP3-60">
          <mxGeometry relative="1" as="geometry" />
        </mxCell>
        <mxCell id="zeZFywTTIwXV4-_s_FP3-51" value="i&amp;lt;=&lt;br&gt;map3.Size()" style="rhombus;whiteSpace=wrap;html=1;" vertex="1" parent="1">
          <mxGeometry x="-38.75" y="680" width="92.5" height="80" as="geometry" />
        </mxCell>
        <mxCell id="zeZFywTTIwXV4-_s_FP3-55" value="否" style="edgeStyle=orthogonalEdgeStyle;rounded=0;orthogonalLoop=1;jettySize=auto;html=1;entryX=0;entryY=0.5;entryDx=0;entryDy=0;" edge="1" parent="1" source="zeZFywTTIwXV4-_s_FP3-54" target="zeZFywTTIwXV4-_s_FP3-56">
          <mxGeometry relative="1" as="geometry">
            <mxPoint x="230" y="700" as="targetPoint" />
          </mxGeometry>
        </mxCell>
        <mxCell id="zeZFywTTIwXV4-_s_FP3-62" style="edgeStyle=orthogonalEdgeStyle;rounded=0;orthogonalLoop=1;jettySize=auto;html=1;entryX=0.5;entryY=1;entryDx=0;entryDy=0;" edge="1" parent="1" source="zeZFywTTIwXV4-_s_FP3-54" target="zeZFywTTIwXV4-_s_FP3-58">
          <mxGeometry relative="1" as="geometry" />
        </mxCell>
        <mxCell id="zeZFywTTIwXV4-_s_FP3-54" value="IndexSet&lt;br&gt;是否找到i" style="rhombus;whiteSpace=wrap;html=1;" vertex="1" parent="1">
          <mxGeometry x="100" y="680" width="80" height="80" as="geometry" />
        </mxCell>
        <mxCell id="zeZFywTTIwXV4-_s_FP3-63" style="edgeStyle=orthogonalEdgeStyle;rounded=0;orthogonalLoop=1;jettySize=auto;html=1;entryX=1;entryY=0.5;entryDx=0;entryDy=0;" edge="1" parent="1" source="zeZFywTTIwXV4-_s_FP3-56" target="zeZFywTTIwXV4-_s_FP3-58">
          <mxGeometry relative="1" as="geometry">
            <Array as="points">
              <mxPoint x="290" y="650" />
            </Array>
          </mxGeometry>
        </mxCell>
        <mxCell id="zeZFywTTIwXV4-_s_FP3-56" value="遍历ModifiedShape，将其中与map[3]相等的面的名字组合一起作为map3[i]的名字" style="rounded=0;whiteSpace=wrap;html=1;" vertex="1" parent="1">
          <mxGeometry x="230" y="680" width="120" height="60" as="geometry" />
        </mxCell>
        <mxCell id="zeZFywTTIwXV4-_s_FP3-58" value="i++" style="rounded=0;whiteSpace=wrap;html=1;" vertex="1" parent="1">
          <mxGeometry x="100" y="630" width="70" height="40" as="geometry" />
        </mxCell>
        <mxCell id="zeZFywTTIwXV4-_s_FP3-60" value="结束" style="rounded=1;whiteSpace=wrap;html=1;" vertex="1" parent="1">
          <mxGeometry x="-52.5" y="790" width="120" height="60" as="geometry" />
        </mxCell>
        <mxCell id="zeZFywTTIwXV4-_s_FP3-65" value="" style="endArrow=none;html=1;rounded=0;entryX=0;entryY=0.5;entryDx=0;entryDy=0;" edge="1" parent="1" target="zeZFywTTIwXV4-_s_FP3-58">
          <mxGeometry width="50" height="50" relative="1" as="geometry">
            <mxPoint x="10" y="650" as="sourcePoint" />
            <mxPoint x="190" y="810" as="targetPoint" />
          </mxGeometry>
        </mxCell>
      </root>
    </mxGraphModel>
  </diagram>
</mxfile>
